<mxfile host="app.diagrams.net" modified="2020-11-02T14:41:17.278Z" agent="5.0 (X11)" etag="yvR2RJGxnSLmvl4XSvDV" version="13.8.8" type="github">
  <diagram name="Page-1" id="f1b7ffb7-ca1e-a977-7cf5-a751b3c06c05">
    <mxGraphModel dx="2051" dy="3050" grid="1" gridSize="10" guides="1" tooltips="1" connect="1" arrows="1" fold="1" page="1" pageScale="1" pageWidth="826" pageHeight="1169" background="#ffffff" math="0" shadow="0">
      <root>
        <mxCell id="0" />
        <mxCell id="1" parent="0" />
        <mxCell id="xTl4i_yI0FR2c94MdJd5-85" value="" style="group" vertex="1" connectable="0" parent="1">
          <mxGeometry x="-796" y="-2250" width="1060" height="2100" as="geometry" />
        </mxCell>
        <mxCell id="xTl4i_yI0FR2c94MdJd5-102" value="" style="group" vertex="1" connectable="0" parent="xTl4i_yI0FR2c94MdJd5-85">
          <mxGeometry width="1026" height="502.75" as="geometry" />
        </mxCell>
        <mxCell id="xTl4i_yI0FR2c94MdJd5-74" value="" style="rounded=0;whiteSpace=wrap;html=1;" vertex="1" parent="xTl4i_yI0FR2c94MdJd5-102">
          <mxGeometry y="2.75" width="1024" height="500" as="geometry" />
        </mxCell>
        <mxCell id="xTl4i_yI0FR2c94MdJd5-75" value="&lt;font style=&quot;font-size: 58px;&quot;&gt;Alain ACKERMAN&lt;/font&gt;" style="text;html=1;strokeColor=none;fillColor=none;align=center;verticalAlign=middle;whiteSpace=wrap;rounded=0;rotation=-90;fontSize=58;" vertex="1" parent="xTl4i_yI0FR2c94MdJd5-102">
          <mxGeometry x="-196.93" y="208.7" width="484" height="86.62" as="geometry" />
        </mxCell>
        <mxCell id="xTl4i_yI0FR2c94MdJd5-77" value="" style="rounded=0;whiteSpace=wrap;html=1;fontSize=50;" vertex="1" parent="xTl4i_yI0FR2c94MdJd5-102">
          <mxGeometry x="114" y="122.75" width="350" height="230" as="geometry" />
        </mxCell>
        <mxCell id="xTl4i_yI0FR2c94MdJd5-79" value="" style="rounded=0;whiteSpace=wrap;html=1;fontSize=50;" vertex="1" parent="xTl4i_yI0FR2c94MdJd5-102">
          <mxGeometry x="503" y="122.75" width="340" height="230" as="geometry" />
        </mxCell>
        <mxCell id="xTl4i_yI0FR2c94MdJd5-80" value="&lt;font style=&quot;font-size: 20px&quot;&gt;Compte . newsletter . contact &lt;br&gt;&lt;/font&gt;" style="text;html=1;strokeColor=none;fillColor=none;align=center;verticalAlign=middle;whiteSpace=wrap;rounded=0;fontSize=50;" vertex="1" parent="xTl4i_yI0FR2c94MdJd5-102">
          <mxGeometry x="730" y="2.75" width="270" height="50" as="geometry" />
        </mxCell>
        <mxCell id="xTl4i_yI0FR2c94MdJd5-81" value="" style="rounded=0;whiteSpace=wrap;html=1;fontSize=50;" vertex="1" parent="xTl4i_yI0FR2c94MdJd5-102">
          <mxGeometry x="880" y="122.75" width="143" height="230" as="geometry" />
        </mxCell>
        <mxCell id="xTl4i_yI0FR2c94MdJd5-82" value="Reportages" style="text;html=1;strokeColor=none;fillColor=none;align=center;verticalAlign=middle;whiteSpace=wrap;rounded=0;fontSize=20;fontStyle=1" vertex="1" parent="xTl4i_yI0FR2c94MdJd5-102">
          <mxGeometry x="95" y="372.75" width="150" height="40" as="geometry" />
        </mxCell>
        <mxCell id="xTl4i_yI0FR2c94MdJd5-83" value="Fragments" style="text;html=1;strokeColor=none;fillColor=none;align=center;verticalAlign=middle;whiteSpace=wrap;rounded=0;fontSize=20;fontStyle=1" vertex="1" parent="xTl4i_yI0FR2c94MdJd5-102">
          <mxGeometry x="481" y="372.75" width="150" height="40" as="geometry" />
        </mxCell>
        <mxCell id="xTl4i_yI0FR2c94MdJd5-84" value="Experimentatio" style="text;html=1;strokeColor=none;fillColor=none;align=center;verticalAlign=middle;whiteSpace=wrap;rounded=0;fontSize=20;fontStyle=1" vertex="1" parent="xTl4i_yI0FR2c94MdJd5-102">
          <mxGeometry x="876" y="372.75" width="150" height="40" as="geometry" />
        </mxCell>
        <mxCell id="xTl4i_yI0FR2c94MdJd5-99" value="image" style="text;html=1;strokeColor=none;fillColor=none;align=center;verticalAlign=middle;whiteSpace=wrap;rounded=0;fontSize=20;" vertex="1" parent="xTl4i_yI0FR2c94MdJd5-102">
          <mxGeometry x="230" y="226" width="100" height="20" as="geometry" />
        </mxCell>
        <mxCell id="xTl4i_yI0FR2c94MdJd5-100" value="image" style="text;html=1;strokeColor=none;fillColor=none;align=center;verticalAlign=middle;whiteSpace=wrap;rounded=0;fontSize=20;" vertex="1" parent="xTl4i_yI0FR2c94MdJd5-102">
          <mxGeometry x="620" y="226" width="100" height="20" as="geometry" />
        </mxCell>
        <mxCell id="xTl4i_yI0FR2c94MdJd5-101" value="image" style="text;html=1;strokeColor=none;fillColor=none;align=center;verticalAlign=middle;whiteSpace=wrap;rounded=0;fontSize=20;" vertex="1" parent="xTl4i_yI0FR2c94MdJd5-102">
          <mxGeometry x="910" y="226" width="100" height="20" as="geometry" />
        </mxCell>
        <mxCell id="xTl4i_yI0FR2c94MdJd5-122" value="" style="rounded=0;whiteSpace=wrap;html=1;" vertex="1" parent="xTl4i_yI0FR2c94MdJd5-85">
          <mxGeometry x="4" y="1072.75" width="1024" height="500" as="geometry" />
        </mxCell>
        <mxCell id="xTl4i_yI0FR2c94MdJd5-123" value="&lt;font style=&quot;font-size: 58px;&quot;&gt;Alain ACKERMAN&lt;/font&gt;" style="text;html=1;strokeColor=none;fillColor=none;align=center;verticalAlign=middle;whiteSpace=wrap;rounded=0;rotation=-90;fontSize=58;textOpacity=40;" vertex="1" parent="xTl4i_yI0FR2c94MdJd5-85">
          <mxGeometry x="-191.63" y="1268.38" width="484" height="107.25" as="geometry" />
        </mxCell>
        <mxCell id="xTl4i_yI0FR2c94MdJd5-124" value="&lt;font style=&quot;font-size: 20px&quot;&gt;Compte . newsletter . contact &lt;br&gt;&lt;/font&gt;" style="text;html=1;strokeColor=none;fillColor=none;align=center;verticalAlign=middle;whiteSpace=wrap;rounded=0;fontSize=50;" vertex="1" parent="xTl4i_yI0FR2c94MdJd5-85">
          <mxGeometry x="734" y="1072.75" width="270" height="50" as="geometry" />
        </mxCell>
        <mxCell id="xTl4i_yI0FR2c94MdJd5-137" value="" style="triangle;whiteSpace=wrap;html=1;fontSize=58;align=left;rotation=-180;" vertex="1" parent="xTl4i_yI0FR2c94MdJd5-85">
          <mxGeometry x="46" y="1312.63" width="56" height="65.63" as="geometry" />
        </mxCell>
        <mxCell id="xTl4i_yI0FR2c94MdJd5-139" value="" style="rounded=0;whiteSpace=wrap;html=1;fontSize=58;align=left;" vertex="1" parent="xTl4i_yI0FR2c94MdJd5-85">
          <mxGeometry x="236" y="1180" width="520" height="320" as="geometry" />
        </mxCell>
        <mxCell id="xTl4i_yI0FR2c94MdJd5-140" value="" style="triangle;whiteSpace=wrap;html=1;fontSize=58;align=left;rotation=0;" vertex="1" parent="xTl4i_yI0FR2c94MdJd5-85">
          <mxGeometry x="926" y="1307.18" width="56" height="65.63" as="geometry" />
        </mxCell>
        <mxCell id="xTl4i_yI0FR2c94MdJd5-142" value="" style="group" vertex="1" connectable="0" parent="xTl4i_yI0FR2c94MdJd5-85">
          <mxGeometry x="-4.250000000000014" y="535.5" width="1028.25" height="500" as="geometry" />
        </mxCell>
        <mxCell id="xTl4i_yI0FR2c94MdJd5-87" value="" style="rounded=0;whiteSpace=wrap;html=1;" vertex="1" parent="xTl4i_yI0FR2c94MdJd5-142">
          <mxGeometry x="4.250000000000014" width="1024" height="500" as="geometry" />
        </mxCell>
        <mxCell id="xTl4i_yI0FR2c94MdJd5-88" value="&lt;font style=&quot;font-size: 58px;&quot;&gt;Alain ACKERMAN&lt;/font&gt;" style="text;html=1;strokeColor=none;fillColor=none;align=center;verticalAlign=middle;whiteSpace=wrap;rounded=0;rotation=-90;fontSize=58;" vertex="1" parent="xTl4i_yI0FR2c94MdJd5-142">
          <mxGeometry x="-191.25" y="201.5" width="484" height="101.5" as="geometry" />
        </mxCell>
        <mxCell id="xTl4i_yI0FR2c94MdJd5-91" value="&lt;font style=&quot;font-size: 20px&quot;&gt;Compte . newsletter . contact &lt;br&gt;&lt;/font&gt;" style="text;html=1;strokeColor=none;fillColor=none;align=center;verticalAlign=middle;whiteSpace=wrap;rounded=0;fontSize=50;" vertex="1" parent="xTl4i_yI0FR2c94MdJd5-142">
          <mxGeometry x="734.25" width="270" height="50" as="geometry" />
        </mxCell>
        <mxCell id="xTl4i_yI0FR2c94MdJd5-96" value="" style="rounded=0;whiteSpace=wrap;html=1;fontSize=20;" vertex="1" parent="xTl4i_yI0FR2c94MdJd5-142">
          <mxGeometry x="121.25000000000001" y="134.5" width="253" height="150" as="geometry" />
        </mxCell>
        <mxCell id="xTl4i_yI0FR2c94MdJd5-103" value="REPORTAGES" style="text;html=1;strokeColor=none;fillColor=none;align=center;verticalAlign=middle;whiteSpace=wrap;rounded=0;fontSize=30;fontStyle=1" vertex="1" parent="xTl4i_yI0FR2c94MdJd5-142">
          <mxGeometry x="90.25000000000001" y="74.5" width="270" height="50" as="geometry" />
        </mxCell>
        <mxCell id="xTl4i_yI0FR2c94MdJd5-109" value="Les habitants de la dÃ©charge" style="text;html=1;strokeColor=none;fillColor=none;align=left;verticalAlign=middle;whiteSpace=wrap;rounded=0;fontSize=17;" vertex="1" parent="xTl4i_yI0FR2c94MdJd5-142">
          <mxGeometry x="120.25000000000001" y="284.5" width="254" height="40" as="geometry" />
        </mxCell>
        <mxCell id="xTl4i_yI0FR2c94MdJd5-110" value="" style="rounded=0;whiteSpace=wrap;html=1;fontSize=20;" vertex="1" parent="xTl4i_yI0FR2c94MdJd5-142">
          <mxGeometry x="120.25000000000001" y="350" width="253" height="150" as="geometry" />
        </mxCell>
        <mxCell id="xTl4i_yI0FR2c94MdJd5-111" value="" style="rounded=0;whiteSpace=wrap;html=1;fontSize=20;" vertex="1" parent="xTl4i_yI0FR2c94MdJd5-142">
          <mxGeometry x="420.25" y="134.5" width="253" height="150" as="geometry" />
        </mxCell>
        <mxCell id="xTl4i_yI0FR2c94MdJd5-112" value="" style="rounded=0;whiteSpace=wrap;html=1;fontSize=20;" vertex="1" parent="xTl4i_yI0FR2c94MdJd5-142">
          <mxGeometry x="710.25" y="134.5" width="253" height="150" as="geometry" />
        </mxCell>
        <mxCell id="xTl4i_yI0FR2c94MdJd5-113" value="" style="rounded=0;whiteSpace=wrap;html=1;fontSize=20;" vertex="1" parent="xTl4i_yI0FR2c94MdJd5-142">
          <mxGeometry x="420.25" y="350" width="253" height="150" as="geometry" />
        </mxCell>
        <mxCell id="xTl4i_yI0FR2c94MdJd5-114" value="" style="rounded=0;whiteSpace=wrap;html=1;fontSize=20;" vertex="1" parent="xTl4i_yI0FR2c94MdJd5-142">
          <mxGeometry x="710.25" y="350" width="253" height="150" as="geometry" />
        </mxCell>
        <mxCell id="xTl4i_yI0FR2c94MdJd5-115" value="Ils cherchent de l&#39;or" style="text;html=1;strokeColor=none;fillColor=none;align=left;verticalAlign=middle;whiteSpace=wrap;rounded=0;fontSize=17;" vertex="1" parent="xTl4i_yI0FR2c94MdJd5-142">
          <mxGeometry x="420.25" y="284.5" width="254" height="40" as="geometry" />
        </mxCell>
        <mxCell id="xTl4i_yI0FR2c94MdJd5-116" value="Le mur de feu" style="text;html=1;strokeColor=none;fillColor=none;align=left;verticalAlign=middle;whiteSpace=wrap;rounded=0;fontSize=17;" vertex="1" parent="xTl4i_yI0FR2c94MdJd5-142">
          <mxGeometry x="710.25" y="284.5" width="254" height="40" as="geometry" />
        </mxCell>
        <mxCell id="xTl4i_yI0FR2c94MdJd5-144" value="" style="rounded=0;whiteSpace=wrap;html=1;" vertex="1" parent="xTl4i_yI0FR2c94MdJd5-85">
          <mxGeometry x="3.250000000000014" y="1600" width="1024" height="500" as="geometry" />
        </mxCell>
        <mxCell id="xTl4i_yI0FR2c94MdJd5-145" value="&lt;font style=&quot;font-size: 58px;&quot;&gt;Alain ACKERMAN&lt;/font&gt;" style="text;html=1;strokeColor=none;fillColor=none;align=center;verticalAlign=middle;whiteSpace=wrap;rounded=0;rotation=-90;fontSize=58;" vertex="1" parent="xTl4i_yI0FR2c94MdJd5-85">
          <mxGeometry x="-192.25" y="1801.5" width="484" height="101.5" as="geometry" />
        </mxCell>
        <mxCell id="xTl4i_yI0FR2c94MdJd5-146" value="&lt;font style=&quot;font-size: 20px&quot;&gt;Compte . newsletter . contact &lt;br&gt;&lt;/font&gt;" style="text;html=1;strokeColor=none;fillColor=none;align=center;verticalAlign=middle;whiteSpace=wrap;rounded=0;fontSize=50;" vertex="1" parent="xTl4i_yI0FR2c94MdJd5-85">
          <mxGeometry x="733.25" y="1600" width="270" height="50" as="geometry" />
        </mxCell>
        <mxCell id="xTl4i_yI0FR2c94MdJd5-157" value="" style="rounded=1;whiteSpace=wrap;html=1;fontSize=58;align=left;" vertex="1" parent="xTl4i_yI0FR2c94MdJd5-85">
          <mxGeometry x="274.3" y="1748" width="405.7" height="70" as="geometry" />
        </mxCell>
        <mxCell id="xTl4i_yI0FR2c94MdJd5-158" value="&lt;font style=&quot;font-size: 18px&quot;&gt;&lt;b&gt;&lt;font style=&quot;font-size: 18px&quot;&gt;Adresse Ã©lectronique :&lt;br&gt;&lt;/font&gt;&lt;/b&gt;&lt;/font&gt;" style="text;html=1;strokeColor=none;fillColor=none;align=left;verticalAlign=middle;whiteSpace=wrap;rounded=0;fontSize=58;" vertex="1" parent="xTl4i_yI0FR2c94MdJd5-85">
          <mxGeometry x="274.3" y="1708" width="244" height="40" as="geometry" />
        </mxCell>
        <mxCell id="xTl4i_yI0FR2c94MdJd5-160" value="" style="rounded=1;whiteSpace=wrap;html=1;fontSize=58;align=left;" vertex="1" parent="xTl4i_yI0FR2c94MdJd5-85">
          <mxGeometry x="274.3" y="1880" width="305.7" height="70" as="geometry" />
        </mxCell>
        <mxCell id="xTl4i_yI0FR2c94MdJd5-161" value="Mot de passe :" style="text;html=1;strokeColor=none;fillColor=none;align=left;verticalAlign=middle;whiteSpace=wrap;rounded=0;fontSize=18;fontStyle=1" vertex="1" parent="xTl4i_yI0FR2c94MdJd5-85">
          <mxGeometry x="274.3" y="1850" width="244" height="40" as="geometry" />
        </mxCell>
        <mxCell id="xTl4i_yI0FR2c94MdJd5-162" value="OK" style="rounded=1;whiteSpace=wrap;html=1;fontSize=25;align=center;verticalAlign=middle;fontColor=#FFFFFF;labelBackgroundColor=#000000;fillColor=#000000;" vertex="1" parent="xTl4i_yI0FR2c94MdJd5-85">
          <mxGeometry x="606" y="1876" width="74" height="74" as="geometry" />
        </mxCell>
        <mxCell id="xTl4i_yI0FR2c94MdJd5-163" value="Mot de passe oubliÃ© ." style="text;html=1;strokeColor=none;fillColor=none;align=left;verticalAlign=middle;whiteSpace=wrap;rounded=0;fontSize=18;fontStyle=4" vertex="1" parent="xTl4i_yI0FR2c94MdJd5-85">
          <mxGeometry x="275" y="1960" width="215.13" height="50" as="geometry" />
        </mxCell>
        <mxCell id="xTl4i_yI0FR2c94MdJd5-164" value="omg.je n&#39;ai pas de compte" style="text;html=1;strokeColor=none;fillColor=none;align=center;verticalAlign=middle;whiteSpace=wrap;rounded=0;fontSize=18;fontStyle=4" vertex="1" parent="xTl4i_yI0FR2c94MdJd5-85">
          <mxGeometry x="436" y="1960" width="259.13" height="50" as="geometry" />
        </mxCell>
      </root>
    </mxGraphModel>
  </diagram>
</mxfile>
